# xmcd CD database file
#
# Track frame offsets:
#	187
#	17950
#	24355
#	42165
#	56452
#	76277
#	92442
#	109985
#	130635
#	146602
#	157850
#
# Disc length: 2366 seconds
#
# Revision: 3
# Processed by: cddbd v1.5PL3 Copyright (c) Steve Scherf et al.
# Submitted via: CDex 1.50
#
DISCID=7d093c0b
DTITLE=The Mad Capsule Market's - The Mad Capsule Market's
DYEAR=1900
DGENRE=Rock
TTITLE0=Possess In Loop !! !! !! !! !!
TTITLE1=Mix-Ism
TTITLE2=S・S・Music
TTITLE3=Mass Media
TTITLE4=Hi-Side High-Individual-Side
TTITLE5=Parasite
TTITLE6=Jesus Is Dead? Jesus Is Alive?
TTITLE7=G・M・J・P
TTITLE8=Down In The System System Error
TTITLE9=La-La-La The Day I Became A Liar
TTITLE10=Walk!(Adrian Sherwood Remix CD Version)
EXTD=
EXTT0=
EXTT1=
EXTT2=
EXTT3=
EXTT4=
EXTT5=
EXTT6=
EXTT7=
EXTT8=
EXTT9=
EXTT10=
PLAYORDER=
